<?xml version="1.0" encoding="UTF-8" standalone="no"?>
<!-- Created with Inkscape (http://www.inkscape.org/) -->
<svg xmlns:dc="http://purl.org/dc/elements/1.1/" xmlns:cc="http://creativecommons.org/ns#" xmlns:rdf="http://www.w3.org/1999/02/22-rdf-syntax-ns#" xmlns:svg="http://www.w3.org/2000/svg" xmlns="http://www.w3.org/2000/svg" xmlns:sodipodi="http://sodipodi.sourceforge.net/DTD/sodipodi-0.dtd" xmlns:inkscape="http://www.inkscape.org/namespaces/inkscape" width="270" height="144" id="svg2" version="1.1" inkscape:version="0.48.1 " sodipodi:docname="darkfield2.svg" inkscape:export-filename="D:\logo.png" inkscape:export-xdpi="80" inkscape:export-ydpi="80">
  <defs id="defs4">
    <inkscape:perspective sodipodi:type="inkscape:persp3d" inkscape:vp_x="60.895341 : 898.10671 : 1" inkscape:vp_y="0 : 1000 : 0" inkscape:vp_z="809.99319 : 907.99211 : 1" inkscape:persp3d-origin="621.84111 : -750.90253 : 1" id="perspective4039"/>
  </defs>
  <sodipodi:namedview id="base" pagecolor="#ffffff" bordercolor="#666666" borderopacity="1.0" inkscape:pageopacity="0.0" inkscape:pageshadow="2" inkscape:zoom="1.115396" inkscape:cx="298.63396" inkscape:cy="-15.985938" inkscape:document-units="px" inkscape:current-layer="layer1" showgrid="false" inkscape:window-width="469" inkscape:window-height="455" inkscape:window-x="175" inkscape:window-y="205" inkscape:window-maximized="0" inkscape:object-nodes="true" inkscape:snap-smooth-nodes="true" inkscape:snap-midpoints="true" inkscape:snap-global="false"/>
  <metadata id="metadata7">
    <rdf:RDF>
      <cc:Work rdf:about="">
        <dc:format>image/svg+xml</dc:format>
        <dc:type rdf:resource="http://purl.org/dc/dcmitype/StillImage"/>
        <dc:title/>
      </cc:Work>
    </rdf:RDF>
  </metadata>
  <g inkscape:label="Layer 1" inkscape:groupmode="layer" id="layer1" transform="translate(0,-908.36215)">
    <text xml:space="preserve" style="font-size:40px;font-style:normal;font-variant:normal;font-weight:normal;font-stretch:normal;line-height:70.99999785%;letter-spacing:0px;word-spacing:0px;fill:#000000;fill-opacity:1;stroke:none;font-family:Alfphabet;-inkscape-font-specification:Alfphabet" x="375.93314" y="335.36325" id="text3069" sodipodi:linespacing="70.999998%"><tspan sodipodi:role="line" id="tspan3071" x="375.93314" y="335.36325"/></text>
    <g id="g3404" transform="matrix(0.82904432,0,0,0.82904432,-242.69798,59.77148)">
      <g style="fill:#333333" id="g5726-3-4" transform="matrix(0.83521024,0,0,0.83521024,254.79819,604.39063)">
        <text xml:space="preserve" style="font-size:36.93412018px;font-style:normal;font-variant:normal;font-weight:normal;font-stretch:normal;line-height:100%;letter-spacing:0px;word-spacing:0px;fill:#333333;fill-opacity:1;stroke:none;font-family:Alfphabet;-inkscape-font-specification:Alfphabet" x="-499.70557" y="815.65393" id="text3085-6-3-4" sodipodi:linespacing="100%" transform="matrix(1.0830094,-0.46689061,0.91057591,0.53079933,0,0)"><tspan sodipodi:role="line" id="tspan3087-5-5-4" x="-499.70557" y="815.65393">DARK</tspan><tspan sodipodi:role="line" x="-499.70557" y="852.58807" id="tspan3089-8-5-4">FIELD</tspan><tspan sodipodi:role="line" x="-499.70557" y="889.52216" id="tspan3091-2-3-2">GAMES</tspan></text>
        <rect style="fill:#333333;fill-opacity:1;stroke:none" id="rect3190-5-2-9" width="171.20486" height="144.27979" x="-585.35828" y="678.23114" transform="matrix(0.91830059,-0.39588385,0.86393163,0.50360912,0,0)"/>
        <path style="fill:#333333;stroke:#ffffff;stroke-width:0.92335302px;stroke-linecap:butt;stroke-linejoin:miter;stroke-opacity:1" d="M 110.73439,609.62758 267.95193,541.85034" id="path4063-4-8-3" inkscape:connector-curvature="0"/>
        <path style="fill:#333333;stroke:#ffffff;stroke-width:0.91647124px;stroke-linecap:butt;stroke-linejoin:miter;stroke-opacity:1" d="M 77.892306,590.53563 235.10698,522.75962" id="path4065-4-2-0" inkscape:connector-curvature="0"/>
        <path style="fill:#333333;stroke:#ffffff;stroke-width:0.91783619px;stroke-linecap:butt;stroke-linejoin:miter;stroke-opacity:1" d="M 144.20078,629.21472 301.44119,561.42761" id="path4067-1-5-7" inkscape:connector-curvature="0"/>
        <path inkscape:connector-curvature="0" id="path4071-6-3-7" d="M 251.41432,612.32404 126.69586,539.62227" style="fill:#333333;stroke:#ffffff;stroke-width:0.89689308px;stroke-linecap:butt;stroke-linejoin:miter;stroke-opacity:1"/>
        <path inkscape:connector-curvature="0" id="path4073-1-6-8" d="M 212.38638,629.12046 87.641788,556.40347" style="fill:#333333;stroke:#ffffff;stroke-width:0.89030993px;stroke-linecap:butt;stroke-linejoin:miter;stroke-opacity:1"/>
        <path inkscape:connector-curvature="0" id="path4075-6-1-7" d="M 291.19068,595.05481 166.67036,522.46855" style="fill:#333333;stroke:#ffffff;stroke-width:0.89076126px;stroke-linecap:butt;stroke-linejoin:miter;stroke-opacity:1"/>
      </g>
      <rect style="fill:#a7a7a7;fill-opacity:1;stroke:none" id="rect5749-4-2" width="142.99207" height="120.50396" x="-976.65247" y="1379.8457" transform="matrix(0.9183006,-0.39588384,0.86393162,0.50360913,0,0)"/>
      <text xml:space="preserve" style="font-size:30.84775543px;font-style:normal;font-variant:normal;font-weight:normal;font-stretch:normal;line-height:100%;letter-spacing:0px;word-spacing:0px;fill:#a7a7a7;fill-opacity:1;stroke:none;font-family:Alfphabet;-inkscape-font-specification:Alfphabet" x="-830.93469" y="1452.9572" id="text5741-8-3" sodipodi:linespacing="100%" transform="matrix(1.0830094,-0.4668906,0.91057593,0.53079932,0,0)"><tspan sodipodi:role="line" id="tspan5743-6-0" x="-830.93469" y="1452.9572">DARK</tspan><tspan sodipodi:role="line" x="-830.93469" y="1483.8049" id="tspan5745-2-3">FIELD</tspan><tspan sodipodi:role="line" x="-830.93469" y="1514.6527" id="tspan5747-1-8">GAMES</tspan></text>
      <path style="fill:#ffffff;stroke:#000000;stroke-width:0.77119392px;stroke-linecap:butt;stroke-linejoin:miter;stroke-opacity:1" d="m 347.28468,1111.8874 131.3097,-56.6083" id="path5751-6-5" inkscape:connector-curvature="0"/>
      <path style="fill:none;stroke:#000000;stroke-width:0.76544613px;stroke-linecap:butt;stroke-linejoin:miter;stroke-opacity:1" d="m 319.85464,1095.9416 131.30731,-56.6072" id="path5753-2-2" inkscape:connector-curvature="0"/>
      <path style="fill:none;stroke:#000000;stroke-width:0.76658618px;stroke-linecap:butt;stroke-linejoin:miter;stroke-opacity:1" d="m 375.23615,1128.2467 131.32881,-56.6164" id="path5755-9-0" inkscape:connector-curvature="0"/>
      <path inkscape:connector-curvature="0" id="path5757-1-3" d="M 464.782,1114.1395 360.61587,1053.4183" style="fill:#000000;stroke:#000000;stroke-width:0.74909431px;stroke-linecap:butt;stroke-linejoin:miter;stroke-opacity:1"/>
      <path inkscape:connector-curvature="0" id="path5759-5-7" d="M 432.18547,1128.168 327.99751,1067.4341" style="fill:#000000;stroke:#000000;stroke-width:0.74359596px;stroke-linecap:butt;stroke-linejoin:miter;stroke-opacity:1"/>
      <path inkscape:connector-curvature="0" id="path5761-0-2" d="M 498.00363,1099.7161 394.00298,1039.0912" style="fill:#000000;stroke:#000000;stroke-width:0.74397296px;stroke-linecap:butt;stroke-linejoin:miter;stroke-opacity:1"/>
      <g id="g5763-3-9" transform="matrix(0.83521024,0,0,0.83521024,111.26297,850.04226)">
        <path transform="matrix(1.1775148,0,0,1.14,-61.286077,-38.118062)" d="m 349.51278,259.64496 c 0,6.97365 -9.55401,12.6269 -21.33947,12.6269 -11.78547,0 -21.33947,-5.65325 -21.33947,-12.6269 0,-6.97365 9.554,-12.62691 21.33947,-12.62691 11.78546,0 21.33947,5.65326 21.33947,12.62691 z" sodipodi:ry="12.626906" sodipodi:rx="21.339472" sodipodi:cy="259.64496" sodipodi:cx="328.17331" id="path5765-6-7" style="fill:#ffffff;fill-opacity:1;stroke-width:3;stroke-miterlimit:4;stroke-dasharray:none" sodipodi:type="arc"/>
        <rect transform="matrix(0.99329103,0.11564141,-0.11564141,0.99329103,0,0)" y="232.069" x="333.97192" height="16.071428" width="4.2857141" id="rect5767-4-5" style="fill:#000000;fill-opacity:1;stroke-width:3;stroke-miterlimit:4;stroke-dasharray:none"/>
        <rect transform="matrix(0.97350326,-0.22867314,0.22867314,0.97350326,0,0)" y="332.54251" x="241.08603" height="16.071428" width="4.2857141" id="rect5769-9-3" style="fill:#000000;fill-opacity:1;stroke-width:3;stroke-miterlimit:4;stroke-dasharray:none"/>
        <rect transform="matrix(0.99329103,0.11564141,-0.11564141,0.99329103,0,0)" y="229.07228" x="361.20535" height="16.071428" width="4.2857141" id="rect5771-2-4" style="fill:#000000;fill-opacity:1;stroke-width:3;stroke-miterlimit:4;stroke-dasharray:none"/>
        <rect transform="matrix(0.97350326,-0.22867314,0.22867314,0.97350326,0,0)" y="338.97562" x="267.71783" height="16.071428" width="4.2857141" id="rect5773-9-3" style="fill:#000000;fill-opacity:1;stroke-width:3;stroke-miterlimit:4;stroke-dasharray:none"/>
        <path inkscape:connector-curvature="0" id="path5775-3-2" d="m 298.75262,258.88736 c 0,0 -5.55584,-5.05076 -2.02031,-9.59645 3.53554,-4.54569 9.59645,0.50508 9.59645,0.50508" style="fill:#ffffff;stroke:#000000;stroke-width:1px;stroke-linecap:butt;stroke-linejoin:miter;stroke-opacity:1"/>
        <path sodipodi:nodetypes="csc" inkscape:connector-curvature="0" id="path5777-4-1" d="m 310.46275,247.88474 c 0,0 -2.1511,-5.40875 3.14715,-7.66525 5.29826,-2.25651 8.14339,5.10217 8.14339,5.10217" style="fill:#ffffff;stroke:#000000;stroke-width:1px;stroke-linecap:butt;stroke-linejoin:miter;stroke-opacity:1"/>
        <path inkscape:connector-curvature="0" id="path5779-4-1" d="m 311.91489,269.54044 c 0,0 -5.41387,5.20265 -9.71083,1.36867 -4.29697,-3.83398 1.15096,-9.54056 1.15096,-9.54056" style="fill:#ffffff;stroke:#000000;stroke-width:1px;stroke-linecap:butt;stroke-linejoin:miter;stroke-opacity:1"/>
        <path inkscape:connector-curvature="0" id="path5781-0-3" d="m 322.03201,271.79903 c 0,0 -1.89827,7.26458 -7.5652,6.24028 -5.66693,-1.02429 -4.00288,-8.73635 -4.00288,-8.73635" style="fill:#ffffff;stroke:#000000;stroke-width:1px;stroke-linecap:butt;stroke-linejoin:miter;stroke-opacity:1"/>
        <path inkscape:connector-curvature="0" id="path5783-5-2" d="m 338.72337,246.007 c 0,0 5.60454,-4.99668 9.75521,-1.00479 4.15067,3.99191 -1.50673,9.49088 -1.50673,9.49088" style="fill:#ffffff;stroke:#000000;stroke-width:1px;stroke-linecap:butt;stroke-linejoin:miter;stroke-opacity:1"/>
        <path inkscape:connector-curvature="0" id="path5785-9-5" d="m 326.9544,246.03442 c 0,0 2.42193,-7.10717 7.99929,-5.67317 5.57736,1.434 3.35646,9.0045 3.35646,9.0045" style="fill:#ffffff;stroke:#000000;stroke-width:1px;stroke-linecap:butt;stroke-linejoin:miter;stroke-opacity:1"/>
        <path inkscape:connector-curvature="0" id="path5787-6-3" d="m 317.07089,246.39115 c 0,0 0.77108,-7.4688 6.52788,-7.31849 5.7568,0.1503 5.28529,8.02575 5.28529,8.02575" style="fill:#ffffff;stroke:#000000;stroke-width:1px;stroke-linecap:butt;stroke-linejoin:miter;stroke-opacity:1"/>
        <path inkscape:connector-curvature="0" id="path5789-3-5" d="m 306.1597,254.02758 c 0,0 -5.55584,-5.05076 -2.0203,-9.59645 3.53553,-4.54569 9.59645,0.50508 9.59645,0.50508" style="fill:#ffffff;stroke:#000000;stroke-width:1px;stroke-linecap:butt;stroke-linejoin:miter;stroke-opacity:1"/>
        <path inkscape:connector-curvature="0" id="path5791-4-1" d="m 306.75494,265.0321 c 0,0 -6.33061,4.03743 -9.79045,-0.56613 -3.45984,-4.60356 3.00319,-9.1284 3.00319,-9.1284" style="fill:#ffffff;stroke:#000000;stroke-width:1px;stroke-linecap:butt;stroke-linejoin:miter;stroke-opacity:1"/>
        <path sodipodi:nodetypes="ccc" inkscape:connector-curvature="0" id="path5793-2-2" d="m 328.55373,270.75529 c 0,0 1.7735,5.06672 -3.77836,6.59714 -5.55165,1.53052 -7.39105,-6.14161 -7.39105,-6.14161" style="fill:#f9f9f9;stroke:#000000;stroke-width:1px;stroke-linecap:butt;stroke-linejoin:miter;stroke-opacity:1"/>
        <path inkscape:connector-curvature="0" id="path5795-8-2" d="m 344.32527,265.04765 c 0,0 4.39133,6.09047 -0.008,9.80681 -4.3991,3.71634 -9.28459,-2.47858 -9.28459,-2.47858" style="fill:#f9f9f9;stroke:#000000;stroke-width:1px;stroke-linecap:butt;stroke-linejoin:miter;stroke-opacity:1"/>
        <g transform="matrix(1.3529283,0,0,1.2238932,182.78413,70.271017)" id="g5797-8-2">
          <path style="fill:#000000;stroke:#000000;stroke-width:1.66764641px;stroke-linecap:butt;stroke-linejoin:miter;stroke-opacity:1" d="m 117.63761,146.75287 c 0,0 22.14843,3.22054 19.57305,10.46611 -2.5754,7.24556 -19.1401,4.81422 -19.1401,4.81422" id="path5799-7-6" inkscape:connector-curvature="0" sodipodi:nodetypes="csc"/>
          <path style="fill:#000000;stroke:#000000;stroke-width:0.5254184px;stroke-linecap:butt;stroke-linejoin:miter;stroke-opacity:1" d="m 119.65995,151.96157 c 0,0 -3.41975,-3.33927 -2.43171,-5.85491 0.98793,-2.5156 4.64825,0.85266 4.64825,0.85266" id="path5801-5-4" inkscape:connector-curvature="0"/>
          <path style="fill:#000000;stroke:#000000;stroke-width:0.5254184px;stroke-linecap:butt;stroke-linejoin:miter;stroke-opacity:1" d="m 120.62515,149.34665 c 0,0 1.24541,-4.61458 3.9233,-4.98005 2.67781,-0.36554 1.52451,4.47316 1.52451,4.47316" id="path5803-8-0" inkscape:connector-curvature="0"/>
        </g>
        <path transform="matrix(0.62068966,0,0,0.88,284.81077,119.48514)" d="m 105.05586,154.96791 c 0,1.74341 -1.63944,3.15673 -3.6618,3.15673 -2.02236,0 -3.661805,-1.41332 -3.661805,-3.15673 0,-1.74341 1.639445,-3.15673 3.661805,-3.15673 2.02236,0 3.6618,1.41332 3.6618,3.15673 z" sodipodi:ry="3.1567266" sodipodi:rx="3.661803" sodipodi:cy="154.96791" sodipodi:cx="101.39406" id="path5805-1-7" style="fill:#ffffff;fill-opacity:1;stroke-width:3;stroke-miterlimit:4;stroke-dasharray:none" sodipodi:type="arc"/>
        <path transform="matrix(0.62068966,0,0,0.88,289.86153,118.72753)" d="m 105.05586,154.96791 c 0,1.74341 -1.63944,3.15673 -3.6618,3.15673 -2.02236,0 -3.661805,-1.41332 -3.661805,-3.15673 0,-1.74341 1.639445,-3.15673 3.661805,-3.15673 2.02236,0 3.6618,1.41332 3.6618,3.15673 z" sodipodi:ry="3.1567266" sodipodi:rx="3.661803" sodipodi:cy="154.96791" sodipodi:cx="101.39406" id="path5807-2-0" style="fill:#ffffff;fill-opacity:1;stroke-width:3;stroke-miterlimit:4;stroke-dasharray:none" sodipodi:type="arc"/>
        <path inkscape:connector-curvature="0" id="path5809-5-3" d="m 336.43059,268.48711 c 0,0 1.05403,7.43414 -4.56891,8.67747 -5.62294,1.24333 -7.06581,-6.51316 -7.06581,-6.51316" style="fill:#ffffff;stroke:#000000;stroke-width:1px;stroke-linecap:butt;stroke-linejoin:miter;stroke-opacity:1"/>
        <rect y="266.28534" x="311.20529" height="5" width="10.178572" id="rect5811-7-4" style="fill:#ffffff;fill-opacity:1;stroke-width:3;stroke-miterlimit:4;stroke-dasharray:none"/>
        <rect y="266.4639" x="334.491" height="4.4642859" width="7.890409" id="rect5813-4-0" style="fill:#ffffff;fill-opacity:1;stroke-width:3;stroke-miterlimit:4;stroke-dasharray:none"/>
      </g>
    </g>
  </g>
</svg>