# Exported from Wings 3D 1.0.2
mtllib worldsky.mtl
o sphere1
#129 vertices, 129 faces
v 0.19509032 0.98078528 0.0000000e+0
v 0.18023996 0.98078528 7.4657834e-2
v 0.13794969 0.98078528 0.13794969
v 7.4657834e-2 0.98078528 0.18023996
v 1.1945442e-17 0.98078528 0.19509032
v -7.4657834e-2 0.98078528 0.18023996
v -0.13794969 0.98078528 0.13794969
v -0.18023996 0.98078528 7.4657834e-2
v -0.19509032 0.98078528 2.3890885e-17
v -0.18023996 0.98078528 -7.4657834e-2
v -0.13794969 0.98078528 -0.13794969
v -7.4657834e-2 0.98078528 -0.18023996
v -3.5836327e-17 0.98078528 -0.19509032
v 7.4657834e-2 0.98078528 -0.18023996
v 0.13794969 0.98078528 -0.13794969
v 0.18023996 0.98078528 -7.4657834e-2
v 0.38268343 0.92387953 0.0000000e+0
v 0.35355339 0.92387953 0.14644661
v 0.27059805 0.92387953 0.27059805
v 0.14644661 0.92387953 0.35355339
v 2.3431828e-17 0.92387953 0.38268343
v -0.14644661 0.92387953 0.35355339
v -0.27059805 0.92387953 0.27059805
v -0.35355339 0.92387953 0.14644661
v -0.38268343 0.92387953 4.6863656e-17
v -0.35355339 0.92387953 -0.14644661
v -0.27059805 0.92387953 -0.27059805
v -0.14644661 0.92387953 -0.35355339
v -7.0295484e-17 0.92387953 -0.38268343
v 0.14644661 0.92387953 -0.35355339
v 0.27059805 0.92387953 -0.27059805
v 0.35355339 0.92387953 -0.14644661
v 0.55557023 0.83146961 0.0000000e+0
v 0.51327997 0.83146961 0.21260752
v 0.39284748 0.83146961 0.39284748
v 0.21260752 0.83146961 0.51327997
v 3.4017742e-17 0.83146961 0.55557023
v -0.21260752 0.83146961 0.51327997
v -0.39284748 0.83146961 0.39284748
v -0.51327997 0.83146961 0.21260752
v -0.55557023 0.83146961 6.8035484e-17
v -0.51327997 0.83146961 -0.21260752
v -0.39284748 0.83146961 -0.39284748
v -0.21260752 0.83146961 -0.51327997
v -1.0205323e-16 0.83146961 -0.55557023
v 0.21260752 0.83146961 -0.51327997
v 0.39284748 0.83146961 -0.39284748
v 0.51327997 0.83146961 -0.21260752
v 0.70710678 0.70710678 0.0000000e+0
v 0.65328148 0.70710678 0.27059805
v 0.50000000 0.70710678 0.50000000
v 0.27059805 0.70710678 0.65328148
v 4.3296373e-17 0.70710678 0.70710678
v -0.27059805 0.70710678 0.65328148
v -0.50000000 0.70710678 0.50000000
v -0.65328148 0.70710678 0.27059805
v -0.70710678 0.70710678 8.6592746e-17
v -0.65328148 0.70710678 -0.27059805
v -0.50000000 0.70710678 -0.50000000
v -0.27059805 0.70710678 -0.65328148
v -1.2988912e-16 0.70710678 -0.70710678
v 0.27059805 0.70710678 -0.65328148
v 0.50000000 0.70710678 -0.50000000
v 0.65328148 0.70710678 -0.27059805
v 0.83146961 0.55557023 0.0000000e+0
v 0.76817776 0.55557023 0.31818965
v 0.58793780 0.55557023 0.58793780
v 0.31818965 0.55557023 0.76817776
v 5.0911149e-17 0.55557023 0.83146961
v -0.31818965 0.55557023 0.76817776
v -0.58793780 0.55557023 0.58793780
v -0.76817776 0.55557023 0.31818965
v -0.83146961 0.55557023 1.0182230e-16
v -0.76817776 0.55557023 -0.31818965
v -0.58793780 0.55557023 -0.58793780
v -0.31818965 0.55557023 -0.76817776
v -1.5273345e-16 0.55557023 -0.83146961
v 0.31818965 0.55557023 -0.76817776
v 0.58793780 0.55557023 -0.58793780
v 0.76817776 0.55557023 -0.31818965
v 0.92387953 0.38268343 0.0000000e+0
v 0.85355339 0.38268343 0.35355339
v 0.65328148 0.38268343 0.65328148
v 0.35355339 0.38268343 0.85355339
v 5.6569437e-17 0.38268343 0.92387953
v -0.35355339 0.38268343 0.85355339
v -0.65328148 0.38268343 0.65328148
v -0.85355339 0.38268343 0.35355339
v -0.92387953 0.38268343 1.1313887e-16
v -0.85355339 0.38268343 -0.35355339
v -0.65328148 0.38268343 -0.65328148
v -0.35355339 0.38268343 -0.85355339
v -1.6970831e-16 0.38268343 -0.92387953
v 0.35355339 0.38268343 -0.85355339
v 0.65328148 0.38268343 -0.65328148
v 0.85355339 0.38268343 -0.35355339
v 0.98078528 0.19509032 0.0000000e+0
v 0.90612745 0.19509032 0.37533028
v 0.69351992 0.19509032 0.69351992
v 0.37533028 0.19509032 0.90612745
v 6.0053794e-17 0.19509032 0.98078528
v -0.37533028 0.19509032 0.90612745
v -0.69351992 0.19509032 0.69351992
v -0.90612745 0.19509032 0.37533028
v -0.98078528 0.19509032 1.2010759e-16
v -0.90612745 0.19509032 -0.37533028
v -0.69351992 0.19509032 -0.69351992
v -0.37533028 0.19509032 -0.90612745
v -1.8016138e-16 0.19509032 -0.98078528
v 0.37533028 0.19509032 -0.90612745
v 0.69351992 0.19509032 -0.69351992
v 0.90612745 0.19509032 -0.37533028
v 1.00000000 6.1230318e-17 0.0000000e+0
v 0.92387953 6.1230318e-17 0.38268343
v 0.70710678 6.1230318e-17 0.70710678
v 0.38268343 6.1230318e-17 0.92387953
v 6.1230318e-17 6.1230318e-17 1.00000000
v -0.38268343 6.1230318e-17 0.92387953
v -0.70710678 6.1230318e-17 0.70710678
v -0.92387953 6.1230318e-17 0.38268343
v -1.00000000 6.1230318e-17 1.2246064e-16
v -0.92387953 6.1230318e-17 -0.38268343
v -0.70710678 6.1230318e-17 -0.70710678
v -0.38268343 6.1230318e-17 -0.92387953
v -1.8369095e-16 6.1230318e-17 -1.00000000
v 0.38268343 6.1230318e-17 -0.92387953
v 0.70710678 6.1230318e-17 -0.70710678
v 0.92387953 6.1230318e-17 -0.38268343
v 0.0000000e+0 1.00000000 0.0000000e+0
vt 1.8579095e-3 0.75092895
vt 1.8579095e-3 0.78206284
vt 1.8579095e-3 0.81319672
vt 1.8579095e-3 0.84433060
vt 1.8579095e-3 0.87546448
vt 1.8579095e-3 0.90659836
vt 1.8579095e-3 0.93773224
vt 1.8579095e-3 0.96886612
vt 6.4125671e-2 0.75092895
vt 6.4125671e-2 0.78206284
vt 6.4125671e-2 0.81319672
vt 6.4125671e-2 0.84433060
vt 6.4125671e-2 0.87546448
vt 6.4125671e-2 0.90659836
vt 6.4125671e-2 0.93773224
vt 6.4125671e-2 0.96886612
vt 0.12432174 0.37567826
vt 0.12639343 0.75092895
vt 0.12639343 0.78206284
vt 0.12639343 0.81319672
vt 0.12639343 0.84433060
vt 0.12639343 0.87546448
vt 0.12639343 0.90659836
vt 0.12639343 0.93773224
vt 0.12639343 0.96886612
vt 0.15291855 0.23191241
vt 0.15291855 0.51944410
vt 0.18866119 0.75092895
vt 0.18866119 0.78206284
vt 0.18866119 0.81319672
vt 0.18866119 0.84433060
vt 0.18866119 0.87546448
vt 0.18866119 0.90659836
vt 0.18866119 0.93773224
vt 0.18866119 0.96886612
vt 0.23435536 0.11003361
vt 0.23435536 0.64132290
vt 0.25092895 0.75092895
vt 0.25092895 0.78206284
vt 0.25092895 0.81319672
vt 0.25092895 0.84433060
vt 0.25092895 0.87546448
vt 0.25092895 0.90659836
vt 0.25092895 0.93773224
vt 0.25092895 0.96886612
vt 0.31319672 0.87546448
vt 0.31319672 0.75092895
vt 0.31319672 0.78206284
vt 0.31319672 0.81319672
vt 0.31319672 0.84433060
vt 0.31319672 0.90659836
vt 0.31319672 0.93773224
vt 0.31319672 0.96886612
vt 0.35623415 2.8596805e-2
vt 0.35623415 0.72275971
vt 0.37546448 0.81319672
vt 0.37546448 0.84433060
vt 0.37546448 0.87546448
vt 0.37546448 0.90659836
vt 0.37546448 0.93773224
vt 0.37546448 0.96886612
vt 0.37546448 0.75092895
vt 0.37546448 0.78206284
vt 0.43773224 0.75092895
vt 0.43773224 0.78206284
vt 0.43773224 0.81319672
vt 0.43773224 0.84433060
vt 0.43773224 0.87546448
vt 0.43773224 0.90659836
vt 0.43773224 0.93773224
vt 0.43773224 0.96886612
vt 0.50000000 0.0000000e+0
vt 0.50000000 0.75092895
vt 0.50000000 0.75135652
vt 0.50000000 0.78206284
vt 0.50000000 0.81319672
vt 0.50000000 0.84433060
vt 0.50000000 0.87546448
vt 0.50000000 0.90659836
vt 0.50000000 0.93773224
vt 0.50000000 0.96886612
vt 0.50000000 1.00000000
vt 0.56226776 0.93773224
vt 0.56226776 0.96886612
vt 0.56226776 0.75092895
vt 0.56226776 0.78206284
vt 0.56226776 0.81319672
vt 0.56226776 0.84433060
vt 0.56226776 0.87546448
vt 0.56226776 0.90659836
vt 0.62453552 0.75092895
vt 0.62453552 0.78206284
vt 0.62453552 0.81319672
vt 0.62453552 0.84433060
vt 0.62453552 0.87546448
vt 0.62453552 0.90659836
vt 0.62453552 0.93773224
vt 0.62453552 0.96886612
vt 0.64376585 2.8596805e-2
vt 0.64376585 0.72275971
vt 0.68680328 0.75092895
vt 0.68680328 0.78206284
vt 0.68680328 0.81319672
vt 0.68680328 0.84433060
vt 0.68680328 0.87546448
vt 0.68680328 0.90659836
vt 0.68680328 0.93773224
vt 0.68680328 0.96886612
vt 0.74907105 0.75092895
vt 0.74907105 0.78206284
vt 0.74907105 0.81319672
vt 0.74907105 0.84433060
vt 0.74907105 0.87546448
vt 0.74907105 0.90659836
vt 0.74907105 0.93773224
vt 0.74907105 0.96886612
vt 0.76564464 0.11003361
vt 0.76564464 0.64132290
vt 0.81133881 0.75092895
vt 0.81133881 0.78206284
vt 0.81133881 0.81319672
vt 0.81133881 0.84433060
vt 0.81133881 0.87546448
vt 0.81133881 0.90659836
vt 0.81133881 0.93773224
vt 0.81133881 0.96886612
vt 0.84708145 0.23191241
vt 0.84708145 0.51944410
vt 0.87360657 0.75092895
vt 0.87360657 0.78206284
vt 0.87360657 0.81319672
vt 0.87360657 0.84433060
vt 0.87360657 0.87546448
vt 0.87360657 0.90659836
vt 0.87360657 0.93773224
vt 0.87360657 0.96886612
vt 0.87567826 0.37567826
vt 0.93587433 0.75092895
vt 0.93587433 0.78206284
vt 0.93587433 0.81319672
vt 0.93587433 0.84433060
vt 0.93587433 0.87546448
vt 0.93587433 0.90659836
vt 0.93587433 0.93773224
vt 0.93587433 0.96886612
vt 0.99814209 0.75092895
vt 0.99814209 0.78206284
vt 0.99814209 0.81319672
vt 0.99814209 0.84433060
vt 0.99814209 0.87546448
vt 0.99814209 0.90659836
vt 0.99814209 0.93773224
vt 0.99814209 0.96886612
vn -0.19501912 -0.98079944 -9.4041133e-16
vn -0.18017417 -0.98079944 -7.4630585e-2
vn -0.13789934 -0.98079944 -0.13789934
vn -7.4630585e-2 -0.98079944 -0.18017417
vn 1.7447334e-18 -0.98079944 -0.19501912
vn 7.4630585e-2 -0.98079944 -0.18017417
vn 0.13789934 -0.98079944 -0.13789934
vn 0.18017417 -0.98079944 -7.4630585e-2
vn 0.19501912 -0.98079944 -3.4894669e-18
vn 0.18017417 -0.98079944 7.4630585e-2
vn 0.13789934 -0.98079944 0.13789934
vn 7.4630585e-2 -0.98079944 0.18017417
vn 5.2342003e-18 -0.98079944 0.19501912
vn -7.4630585e-2 -0.98079944 0.18017417
vn -0.13789934 -0.98079944 0.13789934
vn -0.18017417 -0.98079944 7.4630585e-2
vn -0.38256001 -0.92393065 5.2451658e-17
vn -0.35343937 -0.92393065 -0.14639938
vn -0.27051078 -0.92393065 -0.27051078
vn -0.14639938 -0.92393065 -0.35343937
vn -4.5458103e-17 -0.92393065 -0.38256001
vn 0.14639938 -0.92393065 -0.35343937
vn 0.27051078 -0.92393065 -0.27051078
vn 0.35343937 -0.92393065 -0.14639938
vn 0.38256001 -0.92393065 -3.4967772e-17
vn 0.35343937 -0.92393065 0.14639938
vn 0.27051078 -0.92393065 0.27051078
vn 0.14639938 -0.92393065 0.35343937
vn 1.0140654e-16 -0.92393065 0.38256001
vn -0.14639938 -0.92393065 0.35343937
vn -0.27051078 -0.92393065 0.27051078
vn -0.35343937 -0.92393065 0.14639938
vn -0.55542600 -0.83156596 5.6123085e-17
vn -0.51314672 -0.83156596 -0.21255233
vn -0.39274549 -0.83156596 -0.39274549
vn -0.21255233 -0.83156596 -0.51314672
vn -5.6123085e-17 -0.83156596 -0.55542600
vn 0.21255233 -0.83156596 -0.51314672
vn 0.39274549 -0.83156596 -0.39274549
vn 0.51314672 -0.83156596 -0.21255233
vn 0.55542600 -0.83156596 -9.8215400e-17
vn 0.51314672 -0.83156596 0.21255233
vn 0.39274549 -0.83156596 0.39274549
vn 0.21255233 -0.83156596 0.51314672
vn 4.9107700e-17 -0.83156596 0.55542600
vn -0.21255233 -0.83156596 0.51314672
vn -0.39274549 -0.83156596 0.39274549
vn -0.51314672 -0.83156596 0.21255233
vn -0.70697498 -0.70723856 7.7451670e-17
vn -0.65315971 -0.70723856 -0.27054761
vn -0.49990680 -0.70723856 -0.49990680
vn -0.27054761 -0.70723856 -0.65315971
vn -2.1123183e-17 -0.70723856 -0.70697498
vn 0.27054761 -0.70723856 -0.65315971
vn 0.49990680 -0.70723856 -0.49990680
vn 0.65315971 -0.70723856 -0.27054761
vn 0.70697498 -0.70723856 -1.5490334e-16
vn 0.65315971 -0.70723856 0.27054761
vn 0.49990680 -0.70723856 0.49990680
vn 0.27054761 -0.70723856 0.65315971
vn 0.0000000e+0 -0.70723856 0.70697498
vn -0.27054761 -0.70723856 0.65315971
vn -0.49990680 -0.70723856 0.49990680
vn -0.65315971 -0.70723856 0.27054761
vn -0.83137463 -0.55571236 1.4133308e-16
vn -0.76809000 -0.55571236 -0.31815330
vn -0.58787064 -0.55571236 -0.58787064
vn -0.31815330 -0.55571236 -0.76809000
vn -4.2399924e-17 -0.55571236 -0.83137463
vn 0.31815330 -0.55571236 -0.76809000
vn 0.58787064 -0.55571236 -0.58787064
vn 0.76809000 -0.55571236 -0.31815330
vn 0.83137463 -0.55571236 -1.3426643e-16
vn 0.76809000 -0.55571236 0.31815330
vn 0.58787064 -0.55571236 0.58787064
vn 0.31815330 -0.55571236 0.76809000
vn 1.5546639e-16 -0.55571236 0.83137463
vn -0.31815330 -0.55571236 0.76809000
vn -0.58787064 -0.55571236 0.58787064
vn -0.76809000 -0.55571236 0.31815330
vn -0.92382976 -0.38280357 9.9236015e-17
vn -0.85350741 -0.38280357 -0.35353434
vn -0.65324629 -0.38280357 -0.65324629
vn -0.35353434 -0.38280357 -0.85350741
vn -3.5441434e-17 -0.38280357 -0.92382976
vn 0.35353434 -0.38280357 -0.85350741
vn 0.65324629 -0.38280357 -0.65324629
vn 0.85350741 -0.38280357 -0.35353434
vn 0.92382976 -0.38280357 -1.5594231e-16
vn 0.85350741 -0.38280357 0.35353434
vn 0.65324629 -0.38280357 0.65324629
vn 0.35353434 -0.38280357 0.85350741
vn 1.7720717e-16 -0.38280357 0.92382976
vn -0.35353434 -0.38280357 0.85350741
vn -0.65324629 -0.38280357 0.65324629
vn -0.85350741 -0.38280357 0.35353434
vn -0.98077160 -0.19515907 7.1027089e-17
vn -0.90611481 -0.19515907 -0.37532504
vn -0.69351025 -0.19515907 -0.69351025
vn -0.37532504 -0.19515907 -0.90611481
vn 0.0000000e+0 -0.19515907 -0.98077160
vn 0.37532504 -0.19515907 -0.90611481
vn 0.69351025 -0.19515907 -0.69351025
vn 0.90611481 -0.19515907 -0.37532504
vn 0.98077160 -0.19515907 -1.5625960e-16
vn 0.90611481 -0.19515907 0.37532504
vn 0.69351025 -0.19515907 0.69351025
vn 0.37532504 -0.19515907 0.90611481
vn 1.3495147e-16 -0.19515907 0.98077160
vn -0.37532504 -0.19515907 0.90611481
vn -0.69351025 -0.19515907 0.69351025
vn -0.90611481 -0.19515907 0.37532504
vn -0.92405467 0.38226034 1.0508745e-16
vn -0.85371520 0.38226034 -0.35362041
vn -0.65340532 0.38226034 -0.65340532
vn -0.35362041 0.38226034 -0.85371520
vn 0.0000000e+0 0.38226034 -0.92405467
vn 0.35362041 0.38226034 -0.85371520
vn 0.65340532 0.38226034 -0.65340532
vn 0.85371520 0.38226034 -0.35362041
vn 0.92405467 0.38226034 -9.1951515e-17
vn 0.85371520 0.38226034 0.35362041
vn 0.65340532 0.38226034 0.65340532
vn 0.35362041 0.38226034 0.85371520
vn 1.1822338e-16 0.38226034 0.92405467
vn -0.35362041 0.38226034 0.85371520
vn -0.65340532 0.38226034 0.65340532
vn -0.85371520 0.38226034 0.35362041
vn 4.3586208e-18 -1.00000000 1.5255173e-18
g sphere1_sphere1_auv
usemtl sphere1_auv
f 1/45/1 17/44/17 18/34/18 2/35/2
f 1/45/1 129/82/129 16/53/16
f 2/35/2 18/34/18 19/24/19 3/25/3
f 2/35/2 129/82/129 1/45/1
f 3/25/3 19/24/19 20/15/20 4/16/4
f 3/25/3 129/82/129 2/35/2
f 4/16/4 20/15/20 21/7/21 5/8/5
f 4/16/4 129/82/129 3/25/3
f 5/153/5 21/152/21 22/144/22 6/145/6
f 5/8/5 129/82/129 4/16/4
f 6/145/6 22/144/22 23/135/23 7/136/7
f 6/145/6 129/82/129 5/153/5
f 7/136/7 23/135/23 24/125/24 8/126/8
f 7/136/7 129/82/129 6/145/6
f 8/126/8 24/125/24 25/115/25 9/116/9
f 8/126/8 129/82/129 7/136/7
f 9/116/9 25/115/25 26/107/26 10/108/10
f 9/116/9 129/82/129 8/126/8
f 10/108/10 26/107/26 27/97/27 11/98/11
f 10/108/10 129/82/129 9/116/9
f 11/98/11 27/97/27 28/83/28 12/84/12
f 11/98/11 129/82/129 10/108/10
f 12/84/12 28/83/28 29/80/29 13/81/13
f 12/84/12 129/82/129 11/98/11
f 13/81/13 29/80/29 30/70/30 14/71/14
f 13/81/13 129/82/129 12/84/12
f 14/71/14 30/70/30 31/60/31 15/61/15
f 14/71/14 129/82/129 13/81/13
f 15/61/15 31/60/31 32/52/32 16/53/16
f 15/61/15 129/82/129 14/71/14
f 16/53/16 32/52/32 17/44/17 1/45/1
f 16/53/16 129/82/129 15/61/15
f 17/44/17 33/43/33 34/33/34 18/34/18
f 18/34/18 34/33/34 35/23/35 19/24/19
f 19/24/19 35/23/35 36/14/36 20/15/20
f 20/15/20 36/14/36 37/6/37 21/7/21
f 21/152/21 37/151/37 38/143/38 22/144/22
f 22/144/22 38/143/38 39/134/39 23/135/23
f 23/135/23 39/134/39 40/124/40 24/125/24
f 24/125/24 40/124/40 41/114/41 25/115/25
f 25/115/25 41/114/41 42/106/42 26/107/26
f 26/107/26 42/106/42 43/96/43 27/97/27
f 27/97/27 43/96/43 44/90/44 28/83/28
f 28/83/28 44/90/44 45/79/45 29/80/29
f 29/80/29 45/79/45 46/69/46 30/70/30
f 30/70/30 46/69/46 47/59/47 31/60/31
f 31/60/31 47/59/47 48/51/48 32/52/32
f 32/52/32 48/51/48 33/43/33 17/44/17
f 33/43/33 49/42/49 50/32/50 34/33/34
f 34/33/34 50/32/50 51/22/51 35/23/35
f 35/23/35 51/22/51 52/13/52 36/14/36
f 36/14/36 52/13/52 53/5/53 37/6/37
f 37/151/37 53/150/53 54/142/54 38/143/38
f 38/143/38 54/142/54 55/133/55 39/134/39
f 39/134/39 55/133/55 56/123/56 40/124/40
f 40/124/40 56/123/56 57/113/57 41/114/41
f 41/114/41 57/113/57 58/105/58 42/106/42
f 42/106/42 58/105/58 59/95/59 43/96/43
f 43/96/43 59/95/59 60/89/60 44/90/44
f 44/90/44 60/89/60 61/78/61 45/79/45
f 45/79/45 61/78/61 62/68/62 46/69/46
f 46/69/46 62/68/62 63/58/63 47/59/47
f 47/59/47 63/58/63 64/46/64 48/51/48
f 48/51/48 64/46/64 49/42/49 33/43/33
f 49/42/49 65/41/65 66/31/66 50/32/50
f 50/32/50 66/31/66 67/21/67 51/22/51
f 51/22/51 67/21/67 68/12/68 52/13/52
f 52/13/52 68/12/68 69/4/69 53/5/53
f 53/150/53 69/149/69 70/141/70 54/142/54
f 54/142/54 70/141/70 71/132/71 55/133/55
f 55/133/55 71/132/71 72/122/72 56/123/56
f 56/123/56 72/122/72 73/112/73 57/113/57
f 57/113/57 73/112/73 74/104/74 58/105/58
f 58/105/58 74/104/74 75/94/75 59/95/59
f 59/95/59 75/94/75 76/88/76 60/89/60
f 60/89/60 76/88/76 77/77/77 61/78/61
f 61/78/61 77/77/77 78/67/78 62/68/62
f 62/68/62 78/67/78 79/57/79 63/58/63
f 63/58/63 79/57/79 80/50/80 64/46/64
f 64/46/64 80/50/80 65/41/65 49/42/49
f 65/41/65 81/40/81 82/30/82 66/31/66
f 66/31/66 82/30/82 83/20/83 67/21/67
f 67/21/67 83/20/83 84/11/84 68/12/68
f 68/12/68 84/11/84 85/3/85 69/4/69
f 69/149/69 85/148/85 86/140/86 70/141/70
f 70/141/70 86/140/86 87/131/87 71/132/71
f 71/132/71 87/131/87 88/121/88 72/122/72
f 72/122/72 88/121/88 89/111/89 73/112/73
f 73/112/73 89/111/89 90/103/90 74/104/74
f 74/104/74 90/103/90 91/93/91 75/94/75
f 75/94/75 91/93/91 92/87/92 76/88/76
f 76/88/76 92/87/92 93/76/93 77/77/77
f 77/77/77 93/76/93 94/66/94 78/67/78
f 78/67/78 94/66/94 95/56/95 79/57/79
f 79/57/79 95/56/95 96/49/96 80/50/80
f 80/50/80 96/49/96 81/40/81 65/41/65
f 81/40/81 97/39/97 98/29/98 82/30/82
f 82/30/82 98/29/98 99/19/99 83/20/83
f 83/20/83 99/19/99 100/10/100 84/11/84
f 84/11/84 100/10/100 101/2/101 85/3/85
f 85/148/85 101/147/101 102/139/102 86/140/86
f 86/140/86 102/139/102 103/130/103 87/131/87
f 87/131/87 103/130/103 104/120/104 88/121/88
f 88/121/88 104/120/104 105/110/105 89/111/89
f 89/111/89 105/110/105 106/102/106 90/103/90
f 90/103/90 106/102/106 107/92/107 91/93/91
f 91/93/91 107/92/107 108/86/108 92/87/92
f 92/87/92 108/86/108 109/75/109 93/76/93
f 93/76/93 109/75/109 110/65/110 94/66/94
f 94/66/94 110/65/110 111/63/111 95/56/95
f 95/56/95 111/63/111 112/48/112 96/49/96
f 96/49/96 112/48/112 97/39/97 81/40/81
f 97/39/97 113/38/113 114/28/114 98/29/98
f 98/29/98 114/28/114 115/18/115 99/19/99
f 99/19/99 115/18/115 116/9/116 100/10/100
f 100/10/100 116/9/116 117/1/117 101/2/101
f 101/147/101 117/146/117 118/138/118 102/139/102
f 102/139/102 118/138/118 119/129/119 103/130/103
f 103/130/103 119/129/119 120/119/120 104/120/104
f 104/120/104 120/119/120 121/109/121 105/110/105
f 105/110/105 121/109/121 122/101/122 106/102/106
f 106/102/106 122/101/122 123/91/123 107/92/107
f 107/92/107 123/91/123 124/85/124 108/86/108
f 108/86/108 124/85/124 125/73/125 109/75/109
f 109/75/109 125/73/125 126/64/126 110/65/110
f 110/65/110 126/64/126 127/62/127 111/63/111
f 111/63/111 127/62/127 128/47/128 112/48/112
f 112/48/112 128/47/128 113/38/113 97/39/97
f 113/137/113 128/128/128 127/118/127 126/100/126 125/74/125 124/55/124 123/37/123 122/27/122 121/17/121 120/26/120 119/36/119 118/54/118 117/72/117 116/99/116 115/117/115 114/127/114
